<svg xmlns="http://www.w3.org/2000/svg" width="818.318" height="117.184" viewBox="0 0 818.318 117.184">
  <g id="Grupo_510" data-name="Grupo 510" transform="translate(0)">
    <g id="Grupo_359" data-name="Grupo 359" transform="translate(175.538 7.698)">
      <path id="Caminho_847" data-name="Caminho 847" d="M96.038-45.082C86.414-55.752,73-62.976,60.239-62.976,29.9-62.976,5.632-41.845,5.632-10.252S29.9,41.107,60.239,41.107c5.211,0,15.11-2.416,23.464-6.9,4.987-2.676,8.555-6.547,12.728-10.719L83.806,10.13C79.2,16.2,67.98,19.875,60.239,19.875c-18.411,0-29.5-14.436-29.5-30.128S41.827-40.38,60.239-40.38c6.7,0,16.419,4.044,22.277,10.112Z" transform="translate(250.197 65.976)" fill="#22b393"/>
      <path id="Caminho_842" data-name="Caminho 842" d="M73.617,39.956l23.061-.016.088-58.127c0-14.1,0-44.789-43.122-44.789-10.136,0-35.5,4.474-39.578,8.572l5.949,20.281c6.731-6.221,20.1-6.841,30.614-6.841A29.271,29.271,0,0,1,69.22-34.122c2.561,2.029,2.834,3.544,2.834,8.609v2.558H67.737c-12.571,0-28.748-1.951-41.637,2.747C14-15.8,5.231-4.683,5.231,11.556c0,19.7,17.069,29.977,35.79,29.977,13.463,0,24.621-2.021,31.773-13.218h.822ZM73.882.014c0,13.893-9.511,22.856-26.76,22.856-8.2,0-17.67-3.94-17.67-13.064,0-14.308,21.97-14.146,35.853-14.146h8.576Z" transform="translate(354.472 65.487)" fill="#22b393"/>
      <path id="Caminho_843" data-name="Caminho 843" d="M8.7,38.352H31.748V-14.578c0-5.355,3.073-24.92,24.773-24.92a43.339,43.339,0,0,1,11.138,1.854v-23.89A27.891,27.891,0,0,0,59.4-62.976c-12.1,0-22.276,6.8-27.269,18.124h-.384V-60.5H8.7Z" transform="translate(467.052 67.096)" fill="#22b393"/>
      <path id="Caminho_846" data-name="Caminho 846" d="M106.029-1.465v-6.9c0-34.94-19.039-54.607-47.075-54.607-30.337,0-51.3,21.122-51.3,52.714s20.963,52.733,51.3,52.733c15.9,0,30.755-5.649,42.472-20.085L83.434,8.787c-6.277,7.741-14.436,13.6-26.989,13.6-14.018,0-22.436-9-24.11-23.851ZM32.335-20.3c1.883-14.436,8.07-21.971,22.925-21.971,15.692,0,25.455,7.325,25.664,21.971Z" transform="translate(536.751 62.976)" fill="#22b393"/>
      <path id="Caminho_849" data-name="Caminho 849" d="M32.509,37.817H45.582l27.2-79.7H73.2l29.1,79.7h13.073L144.051-59.6H131.4L108.417,22H108L79.108-59.6H67.089L39.889,22h-.422L15.851-59.6H1.935Z" transform="translate(-1.935 64.362)" fill="#2c3e51"/>
      <path id="Caminho_848" data-name="Caminho 848" d="M85.275,12.653C79.251,23.2,66.4,29.943,54.152,29.943,26.041,29.943,19.014,3.8,19.014-6.745H96.921V-15.6c0-22.562-15.059-45.545-43.572-45.545-27.107,0-46.383,21.929-46.383,51.027,0,30.152,18.674,51.449,46.985,51.449,16.465,0,30.721-6.115,40.158-20.875ZM19.014-18.132c0-5.061,7.429-31.628,33.733-31.628A31.913,31.913,0,0,1,84.873-18.132Z" transform="translate(138.558 63.379)" fill="#2c3e51"/>
    </g>
    <path id="path1" d="M50.176,2.89c-.036.016-.46.059-.943.1a29.146,29.146,0,0,0-4.588.665c-1,.238-2.28.567-2.636.679a34.705,34.705,0,0,0-5.141,2.1l-.906.486c-.266.142-.515.284-.553.316a3.236,3.236,0,0,1-.3.188,35.358,35.358,0,0,0-4.748,3.433,41.879,41.879,0,0,0-4.07,4.116c-.215.254-.406.477-.426.5s-.248.3-.509.63l-.581.73c-.094.116-.492.653-.863,1.161l-.384.526a2.7,2.7,0,0,0-.263.4.514.514,0,0,1-.115.171,10.47,10.47,0,0,0-.77,1.19c-.1.182-.241.421-.3.531-.234.4-1.544,3.165-1.544,3.255a3.5,3.5,0,0,1-.163.4,2.507,2.507,0,0,0-.163.428.541.541,0,0,1-.057.18,14.719,14.719,0,0,0-.629,1.741c-.094.31-.224.728-.287.929-.174.545-.368,1.241-.481,1.726-.3,1.268-.374,1.619-.5,2.256-.168.882-.242,1.309-.324,1.891-.036.256-.094.659-.128.9a58.676,58.676,0,0,0,0,10.567c.035.246.094.664.131.929.123.878.387,2.338.585,3.235.028.128.086.412.128.631s.121.562.174.763.155.589.226.863c.235.9.214.831.7,2.389.142.456.351,1.083.465,1.393s.245.684.291.829c.1.317.442,1.2.645,1.659.08.182.184.436.232.564s.173.426.278.663.282.641.394.9c.222.507,1.567,3.233,1.793,3.633.241.426.388.694.639,1.159.133.247.346.62.474.828s.364.606.524.885a85.544,85.544,0,0,0,4.97,7.231c.089.109.346.438.571.73s.427.545.447.564.1.123.186.233.242.3.356.432.352.412.53.631.339.412.358.43.209.242.424.5.512.6.662.763.335.373.412.465c1.171,1.394,5.211,5.5,7.289,7.4.2.181.4.373.455.428s.215.2.358.325.41.363.592.53.475.43.651.581.378.331.45.4.306.271.521.453.4.347.422.367.179.155.358.3.34.278.358.3c.061.063.813.7,1.139.963a16.117,16.117,0,0,1,1.3,1.161c.68.652,1.234,1.17,1.952,1.825l.582.531c.226.207.689.62.856.763.294.252,1.1.956,1.133.995.018.019.179.153.358.3s.34.282.358.3c.034.043.959.817,1.724,1.444.251.205.488.4.528.442s.185.158.322.268l.909.73c.832.67.906.729,2.048,1.617.519.4.973.758,1.009.787s.3.229.586.444c.652.491,1.2.91,1.333,1.015.054.044.45.334.88.645s.81.589.846.619.212.155.39.279a3.4,3.4,0,0,1,.358.27,3.332,3.332,0,0,0,.366.27c.184.123.74.512,1.236.863s1.386.97,1.977,1.375,1.105.763,1.143.8a1.683,1.683,0,0,0,.228.145.883.883,0,0,1,.191.128,6.223,6.223,0,0,0,.521.353c.268.171.517.336.553.366.105.09.963.651,1.135.744a1.7,1.7,0,0,1,.228.145c.185.158,2.891,1.876,4.006,2.544.2.118.822.5,1.39.854s1.046.639,1.064.639a.943.943,0,0,1,.2.123c.095.068.3.2.465.289s.4.226.521.3c.524.309,2.533,1.47,2.863,1.655.2.11.471.266.608.346s.5.282.813.45.592.327.628.354.46.259.944.516,1.2.642,1.595.855,1.029.547,1.411.743l.695.356.542-.281c1.283-.666,4.32-2.309,5.487-2.97l.944-.53c.233-.129.511-.287.618-.35l1.041-.61,1.5-.878.879-.516c.125-.073.306-.189.4-.258a.933.933,0,0,1,.206-.125c.048,0,2.685-1.631,4.307-2.664.87-.555,3.113-2.04,4.458-2.953l1.5-1.016c.34-.231.633-.438.651-.461s.282-.213.586-.422c1.149-.793,4.354-3.13,4.914-3.582.036-.029.255-.193.488-.364s.437-.327.455-.346.267-.214.553-.433.564-.433.618-.476l.551-.427c.249-.192.5-.386.553-.431l.784-.631c.376-.3.717-.58.758-.619s.157-.13.258-.2.287-.223.414-.334.449-.378.718-.594.5-.41.521-.431.179-.157.358-.3.34-.278.358-.3.208-.182.423-.364.4-.346.423-.365.223-.2.456-.4.456-.395.5-.432.361-.321.713-.631.832-.743,1.068-.962.688-.637,1.006-.929.682-.64.811-.774c.254-.264,1.117-1.022,1.764-1.549.224-.182.44-.362.48-.4s.249-.215.463-.4.4-.346.423-.365.208-.184.423-.366c.45-.382.513-.437,1.3-1.131.517-.455,1.5-1.345,1.895-1.722.077-.073.428-.4.781-.73,2.087-1.946,5.579-5.555,7.093-7.333.14-.164.269-.313.288-.332s.208-.242.423-.5.421-.494.459-.531.2-.231.357-.432.3-.38.323-.4.152-.182.294-.363c.252-.323.516-.643.651-.791.037-.041.154-.193.259-.339.185-.256.681-.894.747-.962.03-.031,1.075-1.454,1.631-2.223.3-.411,1.4-2.052,1.913-2.853.211-.328.437-.678.5-.777a.758.758,0,0,0,.119-.243.1.1,0,0,1,.051-.086c.043-.019.687-1.083,1.056-1.746.062-.11.2-.35.3-.532s.334-.6.508-.929.372-.7.44-.824c.165-.3,1.024-2.056,1.253-2.56.468-1.031.55-1.214.667-1.493.069-.164.209-.508.31-.763a4.093,4.093,0,0,1,.239-.528.271.271,0,0,0,.053-.15,1.573,1.573,0,0,1,.123-.368c.16-.365.329-.811.434-1.144.046-.146.176-.52.289-.83.184-.506.326-.945.684-2.123.061-.2.135-.455.164-.564s.1-.378.161-.6c.219-.808.433-1.671.518-2.09a48.311,48.311,0,0,0,.879-5.341,52.4,52.4,0,0,0-.032-9.283c-.123-1.026-.291-2.2-.376-2.628-.018-.091-.068-.345-.109-.564-.123-.641-.2-1.006-.491-2.256-.093-.4-.194-.8-.225-.9s-.15-.48-.262-.863a24.611,24.611,0,0,0-.916-2.7,1.574,1.574,0,0,1-.123-.368.265.265,0,0,0-.054-.15,2.182,2.182,0,0,1-.173-.395c-.212-.59-1.26-2.812-1.6-3.384-.107-.183-.257-.451-.333-.6-.132-.254-1.078-1.69-1.159-1.759-.034-.028-.225-.291-.768-1.056a45.25,45.25,0,0,0-5.288-5.884c-.161-.143-.337-.307-.391-.364s-.493-.426-.976-.819c-1.07-.871-1.022-.833-1.3-1.031a2.159,2.159,0,0,1-.26-.206,6.117,6.117,0,0,0-.516-.359,6.059,6.059,0,0,1-.574-.407.3.3,0,0,0-.146-.092.286.286,0,0,1-.142-.084,35.334,35.334,0,0,0-4.706-2.57c-.016,0-.2-.079-.4-.175s-.449-.2-.539-.227-.368-.131-.619-.228A33.806,33.806,0,0,0,134.16,3.7l-.846-.179a33.742,33.742,0,0,0-3.84-.55c-1.089-.111-6.243-.112-7.387,0l-1.562.149c-.394.037-.936.1-1.2.138-1.142.166-1.9.29-2.376.393l-.618.132c-.41.087-.592.128-1.627.368-.412.1-.822.2-.911.228s-.294.092-.456.138-.454.135-.651.2-.534.168-.749.231c-.519.153-1.178.377-1.855.63-.3.114-.715.263-.913.332s-.778.306-1.29.527-.941.4-.954.4c-.1,0-3.71,1.8-4.425,2.212l-.716.409c-.179.1-.511.3-.739.441s-.422.255-.433.255c-.064,0-2.366,1.511-3.16,2.073l-.905.641c-.226.16-.459.33-.516.378s-.435.343-.839.657c-.721.56-.972.764-1.182.963-.058.055-.251.218-.428.362a47.137,47.137,0,0,0-3.894,3.831l-.446.509-.333-.377a46.989,46.989,0,0,0-5.245-4.974c-.378-.3-.736-.591-.8-.643s-.192-.147-.293-.214-.227-.156-.281-.2c-.314-.253-.746-.569-.989-.725a2.065,2.065,0,0,1-.312-.227c-.04-.059-1.974-1.348-2.506-1.669-.215-.13-.581-.355-.813-.5s-.613-.368-.846-.5-.555-.313-.716-.41c-.7-.422-4.085-2.1-4.934-2.44-.275-.111-.631-.264-.793-.338-.3-.142-1.02-.426-1.3-.518-.089-.029-.412-.147-.716-.262-.647-.245-1.308-.471-1.855-.634-.764-.228-1.239-.374-1.4-.431s-1.905-.487-2.44-.6l-.586-.127c-.143-.032-.421-.089-.618-.127l-.683-.133c-.179-.035-.545-.095-.813-.133l-.944-.137c-.422-.062-.993-.121-2.668-.275-.673-.062-6.067-.143-6.183-.093m4.653,8.2c.447.04,1.136.115,1.53.167l1.236.161c.287.037.652.094.814.127s.483.095.716.137c.6.108.774.146,2.506.562,1.181.283,1.141.272,3.059.867.847.263,1.066.34,2.148.762,1.638.638,1.614.628,2.339.963.284.131.665.3.846.382.424.184,2.311,1.166,2.758,1.435a3.576,3.576,0,0,0,.37.206c.015,0,.343.2.729.442s.834.518.995.61a2.08,2.08,0,0,1,.326.213c.018.025.31.23.651.456s.692.467.781.534l.521.391c.2.147.387.292.423.322s.168.127.293.215a2.75,2.75,0,0,1,.26.2c.018.021.179.157.358.3s.358.293.4.329c.08.074.318.283.71.623a43.224,43.224,0,0,1,4.344,4.469l.246.309-.229.365a2.051,2.051,0,0,0-.229.435.067.067,0,0,1-.065.069.069.069,0,0,0-.065.071,1.306,1.306,0,0,1-.187.348c-.1.153-.246.382-.317.51l-.374.663c-.134.237-.3.536-.373.664s-.151.262-.178.3-.174.305-.327.6-.361.68-.461.863c-.711,1.294-2.024,3.972-2.945,6.005-.276.61-.924,2.153-1.129,2.687-.126.328-.267.687-.313.8-.189.443-.583,1.5-.783,2.09-.421,1.251-.8,2.43-.913,2.82-.062.219-.152.524-.2.679s-.149.512-.224.8-.176.668-.226.855a48.723,48.723,0,0,0-1.014,5.832,38.048,38.048,0,0,0,0,4.778c.042.292.105.74.142,1a13.26,13.26,0,0,0,.291,1.46c1.2,5.208,5.112,8.994,10.865,10.5a15.037,15.037,0,0,0,9.046-.116A18.347,18.347,0,0,0,99.6,68.553c.018-.02.193-.16.39-.313a14.8,14.8,0,0,0,2.278-2.47.493.493,0,0,1,.115-.176,14.214,14.214,0,0,0,2.158-5.238c.044-.219.105-.518.136-.664a31.4,31.4,0,0,0,.142-6.337c-.18-1.358-.275-1.978-.464-3.053-.2-1.111-.6-2.81-.989-4.147-.29-1-1.205-3.824-1.355-4.18-.03-.073-.209-.536-.4-1.028-.332-.872-.419-1.095-.608-1.543l-.4-.946c-.169-.4-.408-.954-.531-1.227s-.317-.707-.431-.962c-.247-.555-2.242-4.6-2.443-4.96-.289-.512-.425-.758-.647-1.178-.126-.237-.341-.621-.479-.853s-.251-.432-.251-.445-.195-.346-.433-.74-.525-.88-.638-1.081-.258-.446-.321-.545a.319.319,0,0,1-.066-.265,9.183,9.183,0,0,1,.645-.82c.071-.076.287-.316.479-.532.537-.6,1.227-1.321,1.972-2.052.648-.635.882-.852,1.591-1.473l.491-.431c.1-.084.255-.213.355-.286s.271-.21.38-.3.374-.3.589-.464.405-.313.423-.338a47.287,47.287,0,0,1,7.028-4.232l.879-.407c.425-.2,1.288-.552,2.408-.989,1.027-.4,1.274-.489,2.148-.764.43-.135.825-.261.879-.28s.192-.061.309-.094l.423-.118c.6-.17,2.745-.7,3.042-.757.09-.016.4-.078.683-.137.763-.158,1.174-.231,1.757-.311.287-.039.726-.1.976-.137a22.925,22.925,0,0,1,6.833-.057,30.948,30.948,0,0,1,3.71.659c.4.092.706.172,1.009.258l.586.166a29.07,29.07,0,0,1,3.319,1.221c.32.143,1.75.865,1.985,1a21.8,21.8,0,0,1,2.961,2c.018.02.179.156.358.3a17.856,17.856,0,0,1,1.5,1.392,24.651,24.651,0,0,1,5.965,10.451c.3.993.541,1.909.633,2.389.038.2.114.589.169.862s.131.677.169.9.094.533.125.7.087.567.128.9.1.792.134,1.029a62.33,62.33,0,0,1,0,10.683c-.212,1.815-.389,3.111-.517,3.782-.032.164-.1.567-.162.9-.123.7-.225,1.195-.294,1.427-.027.092-.082.285-.122.432-.209.764-.795,2.525-1.016,3.052l-.291.7c-.114.274-.252.6-.307.73-.156.362-1.089,2.259-1.257,2.554-.083.146-.253.459-.378.7s-.282.511-.348.608a.7.7,0,0,0-.12.249.07.07,0,0,1-.065.073.063.063,0,0,0-.065.059c0,.053-.55.972-.952,1.591l-.22.34c-.057.088-.472.709-1.065,1.593-.168.251-.585.829-1.361,1.888-.079.107-.217.287-.308.4s-.287.367-.435.567-.325.425-.391.5-.237.286-.378.473c-.249.327-1.579,1.947-1.655,2.015-.021.018-.505.571-1.077,1.227-2.036,2.336-5.982,6.381-8.2,8.4-.178.162-.414.384-.526.494s-.4.378-.649.6-.477.428-.515.465-.3.274-.591.529-.668.6-.848.763-.415.375-.522.466c-.269.229-1.095.953-1.135.995-.018.019-.208.183-.423.364s-.405.347-.423.367-.179.155-.358.3-.356.293-.4.33-.212.186-.387.332-.495.416-.711.6-.614.512-.882.73-.5.413-.521.434c-.059.069-3.4,2.745-3.937,3.15-.286.217-.535.41-.553.429s-.267.213-.553.432-.535.413-.553.434a3.207,3.207,0,0,1-.26.2,2.76,2.76,0,0,0-.26.2c-.018.021-.311.246-.651.5s-.647.487-.683.515-.255.192-.488.364-.438.328-.456.348-.237.184-.488.362-.47.344-.488.366-.321.248-.674.5c-1.135.816-1.649,1.188-1.807,1.31-.225.173-1.84,1.332-2.335,1.675-.763.529-1.268.886-1.334.942-.036.03-.416.293-.846.583s-.8.544-.814.565-1.072.739-2.343,1.6c-1.984,1.34-2.866,1.926-4.035,2.682-1.849,1.2-2.488,1.606-3.091,1.987-.394.249-.988.627-1.321.841a5.191,5.191,0,0,1-.667.389.064.064,0,0,0-.061.066.066.066,0,0,1-.064.066,3.043,3.043,0,0,0-.521.3,4.66,4.66,0,0,1-.493.3,1.987,1.987,0,0,0-.32.2,1.348,1.348,0,0,1-.353.2.068.068,0,0,0-.07.066.066.066,0,0,1-.066.066,8.446,8.446,0,0,0-.885.5l-.82.5-.563-.344c-.309-.19-.661-.4-.782-.471-.441-.254-2.642-1.618-4.174-2.587-2.357-1.491-6.212-4.037-8.823-5.827-2.178-1.493-4.6-3.186-4.811-3.367-.105-.089-1.515-1.092-1.879-1.337a3.54,3.54,0,0,1-.367-.268c-.033-.044-.621-.488-.886-.669-.3-.208-1.233-.891-1.3-.958-.04-.039-.259-.2-.486-.369-.331-.24-1.623-1.214-1.914-1.442l-1.009-.776c-.519-.4-1.032-.795-1.139-.88l-.26-.206c-.457-.355-1.451-1.148-2.343-1.869-.609-.493-1.238-1-1.4-1.123s-.307-.246-.325-.27-.179-.16-.358-.3-.359-.293-.4-.33c-.085-.076-.19-.163-.642-.53-.179-.146-.5-.414-.714-.6s-.419-.356-.456-.383c-.137-.1-.4-.33-.62-.536-.125-.117-.315-.281-.423-.365s-.3-.248-.423-.364-.4-.36-.619-.542-.4-.347-.423-.365-.237-.213-.488-.431-.5-.443-.553-.5-.3-.28-.551-.5-.615-.549-.813-.735L48.094,80.39c-1.882-1.759-5.573-5.473-7-7.04-1.038-1.143-1.02-1.123-1.529-1.715-.251-.291-.471-.544-.489-.562s-.209-.242-.423-.5-.4-.479-.422-.5-.178-.213-.356-.432-.34-.413-.36-.431-.152-.182-.294-.365-.287-.366-.323-.408c-.1-.12-.23-.283-.715-.92-.25-.328-.49-.642-.534-.7s-.273-.368-.51-.7l-.551-.763c-.368-.507-1.843-2.718-1.88-2.816a.273.273,0,0,0-.069-.1,2.309,2.309,0,0,1-.208-.332c-.091-.164-.33-.572-.533-.906s-.368-.622-.368-.64a4.607,4.607,0,0,0-.255-.461c-.3-.505-1.347-2.622-1.6-3.237-.1-.236-.23-.551-.3-.7-.272-.614-.977-2.646-1.173-3.379-.029-.109-.084-.319-.122-.465-.075-.287-.42-2.03-.518-2.621a52.667,52.667,0,0,1-.721-9.065,40.786,40.786,0,0,1,.917-9.317c.25-1.156.328-1.491.382-1.659.03-.091.118-.39.2-.664a19.309,19.309,0,0,1,.789-2.338.54.54,0,0,0,.057-.181A3.08,3.08,0,0,1,29.373,26c.1-.229.226-.518.276-.643a26.348,26.348,0,0,1,3.341-5.564c.087-.1.22-.256.3-.348a23.842,23.842,0,0,1,2.794-2.754c.225-.182.443-.364.485-.4.088-.083.251-.2,1.3-.907.417-.283.776-.514.8-.514a.851.851,0,0,0,.22-.129,28.73,28.73,0,0,1,7.945-3.01c.089-.016.382-.076.651-.134A38.042,38.042,0,0,1,52,11.031a18.21,18.21,0,0,1,2.831.061m34.609,24.1c.145.287.262.5.509.912.076.128.263.471.416.763s.3.561.326.6.268.5.537,1.028.55,1.082.625,1.228c.166.324,1.115,2.359,1.115,2.39,0,.012.1.256.23.541s.255.579.286.652.1.24.158.371c.117.272.483,1.233.768,2.017.181.5.564,1.69.831,2.588.1.348.244.912.462,1.858.034.146.093.459.131.7s.1.611.135.83a26.736,26.736,0,0,1,.06,3.915A7.269,7.269,0,0,1,93.235,60.7a2.53,2.53,0,0,0-.389.3.092.092,0,0,1-.078.05,2.063,2.063,0,0,0-.394.2,10.637,10.637,0,0,1-1.979.733c-2.163.588-5.461-.864-6.755-2.975a9.2,9.2,0,0,1-1.282-5.07,17.7,17.7,0,0,1,.366-3.475,34.918,34.918,0,0,1,1.064-3.981c.641-1.793.989-2.677,1.609-4.081l.263-.6c.412-.935,1.749-3.627,2.307-4.645.09-.164.289-.537.443-.829s.333-.61.4-.707a.873.873,0,0,0,.12-.217,1.792,1.792,0,0,1,.329-.5.951.951,0,0,1,.179.281" transform="translate(-17.564 -2.875)" fill="#22b393" fill-rule="evenodd"/>
  </g>
</svg>
